<?xml version="1.0" encoding="UTF-8"?>
<svg version="1.1" xmlns="http://www.w3.org/2000/svg" width="68" height="64">
<path d="M0 0 C22.44 0 44.88 0 68 0 C68 21.12 68 42.24 68 64 C45.56 64 23.12 64 0 64 C0 42.88 0 21.76 0 0 Z " fill="#151C28" transform="translate(0,0)"/>
<path d="M0 0 C4.32633002 2.24636367 7.48567037 4.80945061 10 9 C11.25385515 12.99092919 11.6823395 16.36795532 10.04296875 20.2890625 C7.97374363 23.72735198 6.38121177 25.74585882 3 28 C2.41810734 30.42521494 2.41810734 30.42521494 2.3125 33.125 C2.209375 34.73375 2.10625 36.3425 2 38 C-2.62 38 -7.24 38 -12 38 C-12 35.69 -12 33.38 -12 31 C-12.804375 31.020625 -13.60875 31.04125 -14.4375 31.0625 C-17 31 -17 31 -18 30 C-18.07179964 28.48071962 -18.08392007 26.95832518 -18.0625 25.4375 C-18.05347656 24.61121094 -18.04445313 23.78492187 -18.03515625 22.93359375 C-18.02355469 22.29550781 -18.01195312 21.65742187 -18 21 C-19.32 21 -20.64 21 -22 21 C-21.38722388 18.03824877 -20.74627478 16.61941217 -19 14 C-18.6596875 12.3603125 -18.6596875 12.3603125 -18.3125 10.6875 C-15.42786827 2.58305847 -8.38561528 -1.12642593 0 0 Z " fill="#34BFF6" transform="translate(40,12)"/>
<path d="M0 0 C2.875 0.3125 2.875 0.3125 6 1 C8 4 8 4 7.625 6.1875 C7.41875 6.785625 7.2125 7.38375 7 8 C7.66 8 8.32 8 9 8 C9.25 10.75 9.25 10.75 9 14 C7.0625 16.125 7.0625 16.125 5 18 C4.2127322 20.1381966 4.2127322 20.1381966 4 22 C3.01 22 2.02 22 1 22 C1 24.64 1 27.28 1 30 C-1.8125 30.625 -1.8125 30.625 -5 31 C-5.99 30.34 -6.98 29.68 -8 29 C-8 29.66 -8 30.32 -8 31 C-8.66 31 -9.32 31 -10 31 C-9.835 29.906875 -9.67 28.81375 -9.5 27.6875 C-8.93281816 24.12474127 -8.93281816 24.12474127 -9 21 C-6 19 -6 19 -2 19 C-1.67 17.68 -1.34 16.36 -1 15 C-0.360625 14.896875 0.27875 14.79375 0.9375 14.6875 C1.618125 14.460625 2.29875 14.23375 3 14 C3.33 13.01 3.66 12.02 4 11 C3.34 11 2.68 11 2 11 C2.33 8.69 2.66 6.38 3 4 C2.01 3.67 1.02 3.34 0 3 C0 2.01 0 1.02 0 0 Z " fill="#39BCF6" transform="translate(40,17)"/>
<path d="M0 0 C1.32 0 2.64 0 4 0 C4 0.66 4 1.32 4 2 C5.65 2 7.3 2 9 2 C9.625 3.8125 9.625 3.8125 10 6 C9.01 7.485 9.01 7.485 8 9 C8.66 9 9.32 9 10 9 C9.67 10.32 9.34 11.64 9 13 C8.360625 13.12375 7.72125 13.2475 7.0625 13.375 C6.381875 13.58125 5.70125 13.7875 5 14 C4.67 14.66 4.34 15.32 4 16 C2.68 16 1.36 16 0 16 C0 15.01 0 14.02 0 13 C-1.65 13 -3.3 13 -5 13 C-5 11.68 -5 10.36 -5 9 C-5.30404678 7.32774271 -5.63128912 5.65919896 -6 4 C-3 2 -3 2 -1 2 C-0.67 1.34 -0.34 0.68 0 0 Z " fill="#092F47" transform="translate(34,19)"/>
<path d="M0 0 C4.32633002 2.24636367 7.48567037 4.80945061 10 9 C11.26260856 13.01879066 11.68844833 16.38729624 10.0078125 20.32421875 C6.80911727 25.59544137 6.80911727 25.59544137 4 27 C4.54341623 23.08740311 5.66579882 21.11226824 8 18 C8.71433121 15.35065178 8.71433121 15.35065178 9 13 C8.01 13.33 7.02 13.66 6 14 C6.185625 13.21625 6.37125 12.4325 6.5625 11.625 C7.25962266 9.02910225 7.25962266 9.02910225 6 7 C4.68 7 3.36 7 2 7 C1.67 7.66 1.34 8.32 1 9 C0.01 9 -0.98 9 -2 9 C-2 8.34 -2 7.68 -2 7 C-3.32 7 -4.64 7 -6 7 C-6.33 7.99 -6.66 8.98 -7 10 C-8.65 10.33 -10.3 10.66 -12 11 C-11.125 6.125 -11.125 6.125 -10 5 C-10.99 4.34 -11.98 3.68 -13 3 C-8.87108127 -0.09668905 -5.04674076 -0.89235102 0 0 Z " fill="#41AEE1" transform="translate(40,12)"/>
<path d="M0 0 C1.65 0 3.3 0 5 0 C5 0.99 5 1.98 5 3 C6.32 3.33 7.64 3.66 9 4 C8.236875 4.12375 7.47375 4.2475 6.6875 4.375 C2.80538177 6.7223273 2.57028381 9.63193166 1.48046875 13.8828125 C1.32191406 14.58148438 1.16335937 15.28015625 1 16 C1.66 16 2.32 16 3 16 C3 15.34 3 14.68 3 14 C5.97 14.33 8.94 14.66 12 15 C12 12.36 12 9.72 12 7 C12.66 7.33 13.32 7.66 14 8 C13.67 11.3 13.34 14.6 13 18 C8.38 18 3.76 18 -1 18 C-1 15.69 -1 13.38 -1 11 C-1.804375 11.020625 -2.60875 11.04125 -3.4375 11.0625 C-6 11 -6 11 -7 10 C-7.07179964 8.48071962 -7.08392007 6.95832518 -7.0625 5.4375 C-7.05347656 4.61121094 -7.04445313 3.78492188 -7.03515625 2.93359375 C-7.02355469 2.29550781 -7.01195313 1.65742187 -7 1 C-6.71125 1.598125 -6.4225 2.19625 -6.125 2.8125 C-4.95257974 5.19327792 -4.95257974 5.19327792 -3 8 C-2.01 7.67 -1.02 7.34 0 7 C1.17755913 4.05610218 1.03348696 3.10046087 0 0 Z " fill="#3CBBF3" transform="translate(29,32)"/>
<path d="M0 0 C3 1 3 1 4.1875 3.375 C5.28707097 8.28077818 5.16030864 12.99480813 5 18 C5.66 18 6.32 18 7 18 C7 18.66 7 19.32 7 20 C5.25 21.6875 5.25 21.6875 3 23 C0.75 22.6875 0.75 22.6875 -1 22 C-0.319375 21.030625 0.36125 20.06125 1.0625 19.0625 C3.29490763 15.1893122 3.17675774 12.35494426 2.5546875 8.015625 C2.03382832 5.71052127 2.03382832 5.71052127 0 3 C0 2.01 0 1.02 0 0 Z " fill="#0A2740" transform="translate(47,15)"/>
<path d="M0 0 C0.66 0.33 1.32 0.66 2 1 C1.67 4.3 1.34 7.6 1 11 C-3.62 11 -8.24 11 -13 11 C-13 9.02 -13 7.04 -13 5 C-12.01 5.495 -12.01 5.495 -11 6 C-11 6.99 -11 7.98 -11 9 C-10.34 9 -9.68 9 -9 9 C-9 8.34 -9 7.68 -9 7 C-6.03 7.33 -3.06 7.66 0 8 C0 5.36 0 2.72 0 0 Z " fill="#47ABD9" transform="translate(41,39)"/>
<path d="M0 0 C2.875 0.3125 2.875 0.3125 6 1 C8 4 8 4 7.625 6.1875 C7.41875 6.785625 7.2125 7.38375 7 8 C7.66 8 8.32 8 9 8 C9.1875 10.875 9.1875 10.875 9 14 C8.01 14.66 7.02 15.32 6 16 C4.71682108 12.15046324 4.93356363 9.05261865 5 5 C2.525 4.01 2.525 4.01 0 3 C0 2.01 0 1.02 0 0 Z " fill="#3DBEFA" transform="translate(40,17)"/>
<path d="M0 0 C0.66 0 1.32 0 2 0 C2 1.32 2 2.64 2 4 C2.66 4 3.32 4 4 4 C3.67 5.32 3.34 6.64 3 8 C2.360625 8.12375 1.72125 8.2475 1.0625 8.375 C0.381875 8.58125 -0.29875 8.7875 -1 9 C-1.33 9.66 -1.66 10.32 -2 11 C-3.32 11 -4.64 11 -6 11 C-6.33 10.01 -6.66 9.02 -7 8 C-7.66 7.34 -8.32 6.68 -9 6 C-6.03 6 -3.06 6 0 6 C0 4.02 0 2.04 0 0 Z " fill="#0F2437" transform="translate(40,24)"/>
<path d="M0 0 C1.2065625 0.0309375 1.2065625 0.0309375 2.4375 0.0625 C2.1075 0.619375 1.7775 1.17625 1.4375 1.75 C0.28720324 4.41006125 0.29378974 6.18829479 0.4375 9.0625 C0.4375 10.3825 0.4375 11.7025 0.4375 13.0625 C-0.2225 13.0625 -0.8825 13.0625 -1.5625 13.0625 C-1.5625 11.0825 -1.5625 9.1025 -1.5625 7.0625 C-2.8825 6.4025 -4.2025 5.7425 -5.5625 5.0625 C-3.15007962 0.07683121 -3.15007962 0.07683121 0 0 Z " fill="#44AED6" transform="translate(28.5625,15.9375)"/>
<path d="M0 0 C0.33 0 0.66 0 1 0 C1.33 2.97 1.66 5.94 2 9 C3.65 9.33 5.3 9.66 7 10 C7 12.31 7 14.62 7 17 C6.67 15.68 6.34 14.36 6 13 C4.35 12.67 2.7 12.34 1 12 C1 11.34 1 10.68 1 10 C0.01 10 -0.98 10 -2 10 C-2.17942163 6.05272412 -2.09350689 3.4019487 0 0 Z " fill="#0C3A59" transform="translate(21,33)"/>
<path d="M0 0 C1.670625 0.061875 1.670625 0.061875 3.375 0.125 C3.375 1.115 3.375 2.105 3.375 3.125 C2.385 3.455 1.395 3.785 0.375 4.125 C-0.35823796 6.14008358 -0.35823796 6.14008358 -0.625 8.125 C-1.945 7.795 -3.265 7.465 -4.625 7.125 C-5.25 4.75 -5.25 4.75 -5.625 2.125 C-3.625 0.125 -3.625 0.125 0 0 Z " fill="#08263C" transform="translate(33.625,20.875)"/>
<path d="M0 0 C1.08667969 0.11085938 2.17335938 0.22171875 3.29296875 0.3359375 C4.12441406 0.43132813 4.95585938 0.52671875 5.8125 0.625 C5.8125 0.955 5.8125 1.285 5.8125 1.625 C5.17183594 1.71136719 4.53117187 1.79773438 3.87109375 1.88671875 C-2.44764165 2.91316012 -6.25179005 4.54767439 -11.1875 8.625 C-11.1875 7.635 -11.1875 6.645 -11.1875 5.625 C-10.5275 5.625 -9.8675 5.625 -9.1875 5.625 C-9.1875 4.305 -9.1875 2.985 -9.1875 1.625 C-5.54331659 -0.80445561 -4.25826636 -0.4578781 0 0 Z " fill="#0C2133" transform="translate(34.1875,10.375)"/>
<path d="M0 0 C2.39251268 3.58876902 2.55967086 4.76249208 2 9 C-1.59538275 16.29769137 -1.59538275 16.29769137 -5 18 C-4.61204882 15.2067515 -4.36207201 13.42241735 -2.5 11.25 C-0.19498637 7.79247956 -0.25253135 4.07533353 0 0 Z " fill="#41A1CE" transform="translate(49,21)"/>
<path d="M0 0 C2.0625 0.4375 2.0625 0.4375 4 1 C4 1.99 4 2.98 4 4 C5.98 4 7.96 4 10 4 C9.360625 4.103125 8.72125 4.20625 8.0625 4.3125 C7.381875 4.539375 6.70125 4.76625 6 5 C5.67 5.99 5.34 6.98 5 8 C3.35 8.33 1.7 8.66 0 9 C0.875 4.125 0.875 4.125 2 3 C1.01 2.34 0.02 1.68 -1 1 C-0.67 0.67 -0.34 0.34 0 0 Z " fill="#3EA4D0" transform="translate(28,14)"/>
<path d="M0 0 C2 2 2 2 2 5 C2.66 5.33 3.32 5.66 4 6 C2.625 8 2.625 8 1 10 C0.34 10 -0.32 10 -1 10 C-1.33 7.03 -1.66 4.06 -2 1 C-1.34 0.67 -0.68 0.34 0 0 Z " fill="#43B8F8" transform="translate(27,29)"/>
<path d="M0 0 C0.66 0 1.32 0 2 0 C2.33 3.63 2.66 7.26 3 11 C1.02 11 -0.96 11 -3 11 C-3 11.66 -3 12.32 -3 13 C-3.66 13 -4.32 13 -5 13 C-4.67 12.01 -4.34 11.02 -4 10 C-2.66666667 9.66666667 -1.33333333 9.33333333 0 9 C0.33 8.01 0.66 7.02 1 6 C0.34 6 -0.32 6 -1 6 C-0.67 4.02 -0.34 2.04 0 0 Z " fill="#43A6D6" transform="translate(43,22)"/>
<path d="M0 0 C1.65 0.33 3.3 0.66 5 1 C5 2.32 5 3.64 5 5 C1.25 6.125 1.25 6.125 -1 5 C-0.67 3.35 -0.34 1.7 0 0 Z " fill="#47A2D3" transform="translate(34,24)"/>
<path d="M0 0 C1.32 0.33 2.64 0.66 4 1 C3.34 2.98 2.68 4.96 2 7 C2.99 7 3.98 7 5 7 C5 9.31 5 11.62 5 14 C2.42924159 10.98552165 1.47792934 8.64020229 0.8125 4.75 C0.65394531 3.85796875 0.49539062 2.9659375 0.33203125 2.046875 C0.22246094 1.37140625 0.11289062 0.6959375 0 0 Z " fill="#0D2741" transform="translate(16,26)"/>
<path d="M0 0 C1.2065625 0.0309375 1.2065625 0.0309375 2.4375 0.0625 C2.1075 1.3825 1.7775 2.7025 1.4375 4.0625 C-0.2125 4.0625 -1.8625 4.0625 -3.5625 4.0625 C-3.5625 0.08689024 -3.5625 0.08689024 0 0 Z " fill="#111F1E" transform="translate(45.5625,57.9375)"/>
<path d="M0 0 C0.33 0 0.66 0 1 0 C1.36923077 7.50769231 1.36923077 7.50769231 -0.5 10 C-0.995 10.33 -1.49 10.66 -2 11 C-1.34 11.33 -0.68 11.66 0 12 C-1.32 12 -2.64 12 -4 12 C-3.38722388 9.03824877 -2.74627478 7.61941217 -1 5 C-0.61500109 3.34450469 -0.27206865 1.6777567 0 0 Z " fill="#4EA7D2" transform="translate(22,21)"/>
<path d="M0 0 C1.65 0 3.3 0 5 0 C5 0.99 5 1.98 5 3 C6.32 3.33 7.64 3.66 9 4 C7.02 4.33 5.04 4.66 3 5 C2.67 4.01 2.34 3.02 2 2 C1.34 2 0.68 2 0 2 C0 1.34 0 0.68 0 0 Z " fill="#37AAD3" transform="translate(29,32)"/>
<path d="M0 0 C1.08265097 2.07834203 1.96289436 3.81977262 2.4375 6.125 C2.90121021 8.39460571 2.90121021 8.39460571 6 10 C4.33388095 10.042721 2.66617115 10.04063832 1 10 C0 9 0 9 -0.09765625 6.93359375 C-0.08605469 6.10988281 -0.07445313 5.28617188 -0.0625 4.4375 C-0.05347656 3.61121094 -0.04445313 2.78492188 -0.03515625 1.93359375 C-0.02355469 1.29550781 -0.01195313 0.65742187 0 0 Z " fill="#48B1DB" transform="translate(22,33)"/>
<path d="M0 0 C0.33 0 0.66 0 1 0 C1.33 3.3 1.66 6.6 2 10 C0.68 10 -0.64 10 -2 10 C-2.17942163 6.05272412 -2.09350689 3.4019487 0 0 Z " fill="#1A3A5C" transform="translate(21,33)"/>
<path d="M0 0 C1.65 0 3.3 0 5 0 C4.34 1.32 3.68 2.64 3 4 C1.68 4 0.36 4 -1 4 C-0.67 2.68 -0.34 1.36 0 0 Z " fill="#41BAF7" transform="translate(26,16)"/>
<path d="M0 0 C-4.5 3 -4.5 3 -9 6 C-9 5.01 -9 4.02 -9 3 C-8.34 3 -7.68 3 -7 3 C-6.67 2.01 -6.34 1.02 -6 0 C-3 -1 -3 -1 0 0 Z " fill="#052E49" transform="translate(32,13)"/>
</svg>
